<svg width="40px" height="40px" viewBox="0 0 1.2 1.2" fill="none" xmlns="http://www.w3.org/2000/svg"><path d="M0.6 0.1c-0.22 0 -0.4 0.18 -0.4 0.4 0 0.27 0.35 0.575 0.365 0.59 0.01 0.005 0.025 0.01 0.035 0.01s0.025 -0.005 0.035 -0.01C0.65 1.075 1 0.77 1 0.5c0 -0.22 -0.18 -0.4 -0.4 -0.4m0 0.885c-0.105 -0.1 -0.3 -0.315 -0.3 -0.485 0 -0.165 0.135 -0.3 0.3 -0.3s0.3 0.135 0.3 0.3 -0.195 0.385 -0.3 0.485M0.6 0.3c-0.11 0 -0.2 0.09 -0.2 0.2s0.09 0.2 0.2 0.2 0.2 -0.09 0.2 -0.2 -0.09 -0.2 -0.2 -0.2m0 0.3c-0.055 0 -0.1 -0.045 -0.1 -0.1s0.045 -0.1 0.1 -0.1 0.1 0.045 0.1 0.1 -0.045 0.1 -0.1 0.1" fill="#0D0D0D"/></svg>