<svg fill="#000000" xmlns="http://www.w3.org/2000/svg" width="40px" height="40px" viewBox="0 0 2.6 2.6" enable-background="new 0 0 52 52" xml:space="preserve"><path d="M2.425 1.895 2.12 1.65c-0.07 -0.055 -0.17 -0.06 -0.24 -0.005l-0.26 0.19c-0.03 0.025 -0.075 0.02 -0.105 -0.01l-0.39 -0.35 -0.35 -0.39c-0.03 -0.03 -0.03 -0.07 -0.01 -0.105l0.19 -0.26c0.055 -0.07 0.05 -0.17 -0.005 -0.24l-0.245 -0.305c-0.075 -0.09 -0.21 -0.1 -0.295 -0.015L0.15 0.42c-0.04 0.04 -0.06 0.095 -0.06 0.15 0.025 0.51 0.255 0.995 0.595 1.335S1.51 2.475 2.02 2.5c0.055 0.005 0.11 -0.02 0.15 -0.06l0.26 -0.26c0.095 -0.075 0.09 -0.215 -0.005 -0.285"/></svg>